<?xml version="1.0" standalone="yes"?>
<svg xmlns="http://www.w3.org/2000/svg" xmlns:xlink="http://www.w3.org/1999/xlink" xmlns:svg="http://www.w3.org/2000/svg" xmlns:dc="http://purl.org/dc/elements/1.1/" xmlns:cc="http://web.resource.org/cc/" xmlns:rdf="http://www.w3.org/1999/02/22-rdf-syntax-ns#" width="512" height="512">
<path style="fill:#ffffff; stroke:none;" d="M0 0L0 427L1 427C9.05044 413.073 20.5591 415.003 32 406.558C63.9143 383 100.612 362.475 137 347C136.119 341.291 132.184 339.846 128.919 335.64C121.401 325.956 113.697 316.399 111.12 304C109.222 294.875 113.683 287.447 112.701 279C111.89 272.025 107.527 265.814 106.568 259C105.587 252.034 103.922 243.009 105.275 236C106.021 232.131 108.516 229.003 108.894 225C110.093 212.322 107.696 201.726 111.785 189C115.307 178.039 123.886 168.827 131.258 160.285C156.174 131.418 187.464 115.68 226 114.039C235.054 113.654 242.419 117.505 251 119.472C258.626 121.22 268.363 121.058 275.41 124.438C281.686 127.449 283.833 134.542 291 136C298.064 124.797 303.006 114.496 315.093 107.248C321.919 103.155 331.423 104.371 339 102.531C346.51 100.707 353.127 97.6292 361 97.0895C384.566 95.4741 419.076 106.123 437.7 120.524C445.399 126.478 450.857 134.74 457.159 142C464.356 150.29 473.786 159.641 477.767 170C483.264 184.303 481.503 196.337 482.019 211C482.409 222.098 484.405 231.541 483.621 243C482.737 255.93 475.476 262.402 480 276L512 273L512 0L0 0z"/>
<path style="fill:#b5b5b5; stroke:none;" d="M5 27L5 61L6 61L5 27z"/>
<path style="fill:#030303; stroke:none;" d="M6 27L6 61L11 61L11 27L6 27z"/>
<path style="fill:#9c9c9c; stroke:none;" d="M11 27L11 61L12 61L11 27z"/>
<path style="fill:#828282; stroke:none;" d="M30 27L30 61L31 61L31 28L36 28L30 27z"/>
<path style="fill:#bcbcbc; stroke:none;" d="M36 27L36 40L37 40L36 27z"/>
<path style="fill:#464646; stroke:none;" d="M46 29L54 29C51.7681 26.4458 48.2319 26.4458 46 29z"/>
<path style="fill:#c6c6c6; stroke:none;" d="M60 27L60 61L61 61L60 27z"/>
<path style="fill:#4c4c4c; stroke:none;" d="M61 27L61 28L67 31C67.8669 27.1401 64.0606 27.1002 61 27z"/>
<path style="fill:#8c8c8c; stroke:none;" d="M77 27L77 47L78 47L78 28L83 28L83 61L84 61L84 27L77 27z"/>
<path style="fill:#070707; stroke:none;" d="M99.0895 27.7384C83.5638 33.9133 90.2251 68.0057 108.829 60.1065C124.111 53.618 116.857 20.6719 99.0895 27.7384M122 27L129 61L136 61L141 35L142 35L147 61L154 61L160 28C152.628 29.2303 151.283 46.4183 151 53L150 53L145 28L138 28L133 53L131 53C130.94 45.7734 130.85 27.7058 122 27z"/>
<path style="fill:#4c4c4c; stroke:none;" d="M137 27L137 31L138 31L138 28L145 28L137 27z"/>
<path style="fill:#8c8c8c; stroke:none;" d="M145 27L146 36L147 36L145 27z"/>
<path style="fill:#4c4c4c; stroke:none;" d="M155 29L160 28L159 35L160 35L161 27L155 29z"/>
<path style="fill:#434343; stroke:none;" d="M176 27L176 28L199 28L176 27z"/>
<path style="fill:#9c9c9c; stroke:none;" d="M199 27L199 34L200 34L199 27z"/>
<path style="fill:#6d6d6d; stroke:none;" d="M205 27L205 28L210 28L210 41L211 41L211 27L205 27z"/>
<path style="fill:#b5b5b5; stroke:none;" d="M221 27L221 40L211 40L211 41L222 41L221 27z"/>
<path style="fill:#828282; stroke:none;" d="M222 27L222 28L227 28L227 61L228 61L228 27L222 27z"/>
<path style="fill:#434343; stroke:none;" d="M242 27L242 31L243 31L243 28L249 30C250.458 26.1313 244.572 27.0017 242 27M259 27L259 34L268 34L268 33L260 33L260 28L282 28L282 33L274 33L274 34L283 34L283 27L259 27z"/>
<path style="fill:#9c9c9c; stroke:none;" d="M300 27L300 61L301 61L300 27z"/>
<path style="fill:#464646; stroke:none;" d="M301 27L301 28L319 28L319 33L306 33L306 34L320 34L320 27L301 27z"/>
<path style="fill:#868686; stroke:none;" d="M326 27L326 61L327 61L326 27z"/>
<path style="fill:#434343; stroke:none;" d="M327 27L327 28L346 28L346 33L332 33L332 34L347 34L347 27L327 27z"/>
<path style="fill:#acacac; stroke:none;" d="M354 27L354 61L355 61L354 27z"/>
<path style="fill:#434343; stroke:none;" d="M355 27L355 28L374 28L374 33L360 33L360 34L375 34L375 27L355 27z"/>
<path style="fill:#b5b5b5; stroke:none;" d="M382 27L382 61L383 61L382 27z"/>
<path style="fill:#030303; stroke:none;" d="M383 27L383 61L403 61L403 55C399.359 55 393.485 56.0853 390.318 53.9722C385.093 50.4854 388 32.7201 388 27L383 27z"/>
<path style="fill:#8c8c8c; stroke:none;" d="M388 27L388 54L389 54L388 27z"/>
<path style="fill:#d2d2d2; stroke:none;" d="M420 27L420 61L421 61L420 27z"/>
<path style="fill:#2f2f2f; stroke:none;" d="M421 27L421 61L422 61L422 28L438 28L421 27z"/>
<path style="fill:#7c7c7c; stroke:none;" d="M451 27L451 61L452 61L451 27z"/>
<path style="fill:#434343; stroke:none;" d="M452 27L452 28L469 28L452 27z"/>
<path style="fill:#464646; stroke:none;" d="M488 28L488 29L499 28L488 28z"/>
<path style="fill:#030303; stroke:none;" d="M31 28L31 61L36 61L39 45L42 45C43.3649 52.1604 46.9783 60.7335 55 61L46.0671 40.0895L53 28C45.3898 28.2419 40.7815 33.8119 37 40L36 40L36 28L31 28M61 28L61 61L66 61L66 41C72.2131 47.1523 72.8846 60.6637 83 61L83 28L78 28L78 47C72.4586 40.2385 71.2363 28.7591 61 28z"/>
<path style="fill:#757575; stroke:none;" d="M108 28L108 29L111 30L108 28z"/>
<path style="fill:#030303; stroke:none;" d="M176 28L176 34L185 34L185 61L190 61L190 34L199 34L199 28L176 28z"/>
<path style="fill:#2f2f2f; stroke:none;" d="M205 28L205 61L210 59L206 60L205 28z"/>
<path style="fill:#030303; stroke:none;" d="M206 28L206 60L211.028 49.3179L222 47L222 61L227 61L227 28L222 28L222 41L210 41L210 28L206 28z"/>
<path style="fill:#070707; stroke:none;" d="M243 28L232 61C237.684 60.6851 239.234 58.4899 240 53L252 53L254 61L260 61C258.084 51.74 253.898 28.3613 243 28z"/>
<path style="fill:#030303; stroke:none;" d="M260 28L260 33L268 33L268 61L273 61C273 51.0866 268.516 33.1594 282 33L282 28L260 28M301 28L301 61L306 61L306 46L317 46L317 40L306 40L306 33L319 33L319 28L301 28z"/>
<path style="fill:#d2d2d2; stroke:none;" d="M320 28L320 34L307 34L307 35L321 36L320 28z"/>
<path style="fill:#030303; stroke:none;" d="M327 28L327 61L348 61L348 55L332 55L332 47L345 47L345 41L332 41L332 33L346 33L346 28L327 28M355 28L355 61L376 61L376 55L360 55L360 47L373 47L373 41L360 41L360 33L374 33L374 28L355 28M422 28L422 61C429.442 61 443.302 63.4423 444.682 52.8696C445.152 49.2704 442.15 46.5301 442.068 42.9962C441.966 38.618 444.83 33.0983 440.682 29.6034C436.606 26.1689 427.027 28 422 28M452 28L452 61L457 61L457 46C463.992 47.1272 468.17 54.6626 470 61L477 61L469 45C474.342 42.0292 478.271 32.4587 470.867 29.0092C465.637 26.573 457.652 28 452 28z"/>
<path style="fill:#8c8c8c; stroke:none;" d="M470.667 28.3333L471.333 28.6667L470.667 28.3333z"/>
<path style="fill:#030303; stroke:none;" d="M490.001 28.5725C474.011 33.1773 480.106 66.2561 497.999 60.436C513.879 55.2709 509.269 23.0236 490.001 28.5725z"/>
<path style="fill:#a2a2a2; stroke:none;" d="M499.667 28.3333L500.333 28.6667L499.667 28.3333z"/>
<path style="fill:#666666; stroke:none;" d="M52.3333 29.6667L52.6667 30.3333L52.3333 29.6667z"/>
<path style="fill:#9c9c9c; stroke:none;" d="M128 29L128 35L129 35L128 29z"/>
<path style="fill:#3c3c3c; stroke:none;" d="M154 29L153 41L154 41L154 29z"/>
<path style="fill:#757575; stroke:none;" d="M94 30L94 32L96 30L94 30z"/>
<path style="fill:#626262; stroke:none;" d="M136 31L136 36L137 36L136 31z"/>
<path style="fill:#949494; stroke:none;" d="M474.333 31.6667L474.667 32.3333L474.333 31.6667z"/>
<path style="fill:#8c8c8c; stroke:none;" d="M41 33L41 36L42 36L41 33z"/>
<path style="fill:#666666; stroke:none;" d="M443 33L443 40L444 40L443 33z"/>
<path style="fill:#ffffff; stroke:none;" d="M100.133 35.0285C92.051 39.6155 96.8065 58.6917 106.867 52.9715C114.94 48.3806 110.23 29.2987 100.133 35.0285z"/>
<path style="fill:#a6a6a6; stroke:none;" d="M184 34L184 61L185 61L184 34z"/>
<path style="fill:#949494; stroke:none;" d="M190 34L190 61L191 61L190 34z"/>
<path style="fill:#7c7c7c; stroke:none;" d="M245 34L245 37L247 37L247 34L245 34z"/>
<path style="fill:#acacac; stroke:none;" d="M252 34L252 38L253 38L252 34z"/>
<path style="fill:#d2d2d2; stroke:none;" d="M259 34L259 35L267 35L267 61L268 61L268 34L259 34z"/>
<path style="fill:#5d5d5d; stroke:none;" d="M273 34L273 61L274 61L273 34z"/>
<path style="fill:#9c9c9c; stroke:none;" d="M306 34L306 40L317 40L317 46L318 46L318 39L307 39L306 34z"/>
<path style="fill:#d2d2d2; stroke:none;" d="M332 34L332 41L346 41L346 40L333 40L333 35L347 35L332 34z"/>
<path style="fill:#b5b5b5; stroke:none;" d="M360 34L360 41L374 41L374 40L361 40L361 35L375 35L360 34z"/>
<path style="fill:#ffffff; stroke:none;" d="M427 34L427 40L438 40C437.472 33.2223 432.656 34.0006 427 34M457 34L457 39L469 39C467.954 32.7334 462.18 34 457 34M491.109 35.0285C483.073 39.4982 487.578 58.3672 497.66 53.061C506.052 48.644 501.307 29.3558 491.109 35.0285z"/>
<path style="fill:#666666; stroke:none;" d="M129 35L129 41L130 41L129 35z"/>
<path style="fill:#a6a6a6; stroke:none;" d="M141 35L140 41L141 41L141 35z"/>
<path style="fill:#8c8c8c; stroke:none;" d="M469 35L469 38L470 38L469 35z"/>
<path style="fill:#b5b5b5; stroke:none;" d="M481 35L480 50L481 50L481 35z"/>
<path style="fill:#535353; stroke:none;" d="M506 35L506 39L507 39L506 35z"/>
<path style="fill:#666666; stroke:none;" d="M147 36L147 42L148 42L147 36z"/>
<path style="fill:#8c8c8c; stroke:none;" d="M110 37L110 51L111 51C112.125 46.2739 112.849 41.17 110 37z"/>
<path style="fill:#a6a6a6; stroke:none;" d="M238 37L238 42L239 42L238 37z"/>
<path style="fill:#949494; stroke:none;" d="M244 37L244 42L245 42L244 37z"/>
<path style="fill:#ffffff; stroke:none;" d="M245 37L243 46L249 46L248 37L245 37z"/>
<path style="fill:#757575; stroke:none;" d="M487.333 37.6667L487.667 38.3333L487.333 37.6667M73.3333 39.6667L73.6667 40.3333L73.3333 39.6667z"/>
<path style="fill:#4c4c4c; stroke:none;" d="M90 39L90 50L91 50L90 39z"/>
<path style="fill:#c6c6c6; stroke:none;" d="M117 39L117 50L118 50L117 39z"/>
<path style="fill:#a2a2a2; stroke:none;" d="M457 39L457 40L468 40L457 39z"/>
<path style="fill:#535353; stroke:none;" d="M507 39L507 50L508 50L507 39M95 40L96 51L97 51L95 40z"/>
<path style="fill:#5d5d5d; stroke:none;" d="M139 40L139 45L140 45L139 40z"/>
<path style="fill:#bcbcbc; stroke:none;" d="M427 40L427 41L437 41L427 40z"/>
<path style="fill:#a2a2a2; stroke:none;" d="M486 40L487 51L488 51L486 40z"/>
<path style="fill:#464646; stroke:none;" d="M502 40L501 50L502 50L502 40z"/>
<path style="fill:#7c7c7c; stroke:none;" d="M66 41L66 61L67 61L68 41L66 41z"/>
<path style="fill:#828282; stroke:none;" d="M74.3333 41.6667L74.6667 42.3333L74.3333 41.6667z"/>
<path style="fill:#666666; stroke:none;" d="M130 41L130 46L131 46L130 41z"/>
<path style="fill:#7c7c7c; stroke:none;" d="M157 41L156 52L157 52L157 41M345 41L345 47L332 47L332 48L346 48L345 41z"/>
<path style="fill:#434343; stroke:none;" d="M373 41L373 47L374 47L373 41z"/>
<path style="fill:#5d5d5d; stroke:none;" d="M148 42L148 47L149 47L148 42z"/>
<path style="fill:#9c9c9c; stroke:none;" d="M237 42L237 45L238 45L237 42z"/>
<path style="fill:#7c7c7c; stroke:none;" d="M254 42L254 45L255 45L254 42z"/>
<path style="fill:#757575; stroke:none;" d="M75.3333 43.6667L75.6667 44.3333L75.3333 43.6667z"/>
<path style="fill:#828282; stroke:none;" d="M47 44L48 49L49 49L47 44z"/>
<path style="fill:#8c8c8c; stroke:none;" d="M39 48L40 48L42 47C40.5827 44.4766 39.5169 45.5415 39 48z"/>
<path style="fill:#757575; stroke:none;" d="M138 45L138 50L139 50L138 45z"/>
<path style="fill:#4c4c4c; stroke:none;" d="M144 45L144 51L145 51L144 45z"/>
<path style="fill:#7c7c7c; stroke:none;" d="M236 45L236 49L237 49L236 45z"/>
<path style="fill:#666666; stroke:none;" d="M242 45C244.232 47.5542 247.768 47.5542 250 45L242 45z"/>
<path style="fill:#535353; stroke:none;" d="M131 46L131 53L132 53L131 46z"/>
<path style="fill:#b5b5b5; stroke:none;" d="M306 46L306 61L307 61L307 47L317 47L306 46z"/>
<path style="fill:#7c7c7c; stroke:none;" d="M443 46L443 49L444 49L443 46z"/>
<path style="fill:#828282; stroke:none;" d="M211 47L211 48L222 48L211 47M360 47L360 54L361 54L361 48L374 48L360 47M426 47L426 54L427 54L427 48L437 48L426 47z"/>
<path style="fill:#6d6d6d; stroke:none;" d="M210 48L210 61L211 61L210 48z"/>
<path style="fill:#c2c2c2; stroke:none;" d="M221 48L221 61L222 61L221 48z"/>
<path style="fill:#ffffff; stroke:none;" d="M427 48L427 54C440.187 54 440.165 48.0014 427 48z"/>
<path style="fill:#c2c2c2; stroke:none;" d="M36 50L36 61L37 61L36 50z"/>
<path style="fill:#949494; stroke:none;" d="M137 50L137 55L138 55L137 50z"/>
<path style="fill:#535353; stroke:none;" d="M127 51L127 56L128 56L127 51z"/>
<path style="fill:#4c4c4c; stroke:none;" d="M145 51L145 56L146 56L145 51z"/>
<path style="fill:#8c8c8c; stroke:none;" d="M155 52L155 56L156 56L155 52z"/>
<path style="fill:#626262; stroke:none;" d="M466 52L468 55L466 52z"/>
<path style="fill:#7c7c7c; stroke:none;" d="M92.3333 53.6667L92.6667 54.3333L92.3333 53.6667z"/>
<path style="fill:#868686; stroke:none;" d="M505.333 53.6667L505.667 54.3333L505.333 53.6667z"/>
<path style="fill:#6d6d6d; stroke:none;" d="M74.3333 54.6667L74.6667 55.3333L74.3333 54.6667z"/>
<path style="fill:#535353; stroke:none;" d="M100 54L100 55L107 55L100 54M332 54L332 55L348 55L332 54M360 54L360 55L376 55L360 54M389 54L389 55L403 55L389 54M427 54L427 55L438 55L427 54z"/>
<path style="fill:#4c4c4c; stroke:none;" d="M491 54L491 55L498 55L491 54z"/>
<path style="fill:#828282; stroke:none;" d="M443 55L443 58L444 58L443 55M75 56L75 59L76 59L75 56z"/>
<path style="fill:#acacac; stroke:none;" d="M94 56L96 59L94 56z"/>
<path style="fill:#757575; stroke:none;" d="M128 56L128 61L129 61L128 56z"/>
<path style="fill:#7c7c7c; stroke:none;" d="M146 56L146 61L147 61L146 56z"/>
<path style="fill:#9c9c9c; stroke:none;" d="M154 56L154 61L155 61L154 56z"/>
<path style="fill:#626262; stroke:none;" d="M253 56L253 60L254 60L253 56z"/>
<path style="fill:#949494; stroke:none;" d="M468.333 56.6667L468.667 57.3333L468.333 56.6667z"/>
<path style="fill:#9c9c9c; stroke:none;" d="M469.333 58.6667L469.667 59.3333L469.333 58.6667z"/>
<path style="fill:#868686; stroke:none;" d="M476.333 58.6667L476.667 59.3333L476.333 58.6667z"/>
<path style="fill:#b5b5b5; stroke:none;" d="M500 60L503 58L500 60z"/>
<path style="fill:#8c8c8c; stroke:none;" d="M48.3333 59.6667L48.6667 60.3333L48.3333 59.6667z"/>
<path style="fill:#757575; stroke:none;" d="M357 97L357 98L374 98L357 97z"/>
<path style="fill:#b5b5b5; stroke:none;" d="M348 99L348 100L352 99L348 99z"/>
<path style="fill:#101010; stroke:none;" d="M291 136C284.808 133.878 281.903 127.773 276 125.075C269.097 121.919 261.236 122.111 254 120.545C244.315 118.449 235.119 114.075 225 114.079C218.781 114.081 213.04 116.688 207 117.675C169.379 123.824 134.24 143.044 116.301 179C108.996 193.641 109.956 208.402 108.881 224C108.313 232.24 105.665 239.441 106.039 248C106.516 258.884 111.608 267.608 112.535 278C113.706 291.128 109.859 302.645 115.032 315.961C118.01 323.626 124.778 330.397 129.9 336.718C131.786 339.045 135.659 341.625 135.812 344.872C135.907 346.876 133.64 349.104 133 351C113.544 352.699 95.5103 367.134 79.9105 377.459C64.6416 387.565 48.3367 396.171 32.9606 406.12C20.8228 413.975 7.31576 412.043 0.884259 427.424C-2.41195 435.307 -1.40104 453.59 3.20988 460.714C5.51269 464.271 12.6818 468.03 13.3742 472.134C14.5312 478.992 0.542057 487.923 0 496L17 475C26.6721 481.874 32.0263 495.966 45 498L31 512L35 512C44.6641 493.353 57.693 506.948 71 510C65.7347 500.711 51.7285 498.849 43 494.1C32.5794 488.429 28.0274 479.036 19.8156 471.247C14.5938 466.294 6.2759 461.735 3.42361 454.83C-1.94122 441.844 1.44269 426.222 12.8449 417.765C18.4026 413.642 26.0415 414.114 32 410.24C67.7206 387.017 102.962 363.68 143 349C152.276 373.515 171.536 386.909 198 389L198 385C183.37 387.329 162.332 376.678 153.85 364.776C150.455 360.011 149.437 353.588 145.73 348.785C132.756 331.973 117.107 320.019 113.259 297.91C112.155 291.562 116.32 286.266 115.772 280C115.165 273.044 110.408 266.871 109.558 260C107.999 247.399 111.237 237.194 111.856 225C112.192 218.396 110.006 211.763 111.263 205.09C120.906 153.917 174.407 119.432 224 117.04C232.552 116.628 238.961 119.708 247 121.646C264.667 125.904 278.452 127.595 291.437 141.568C294.055 144.385 294.06 148.745 295.934 152C300.889 160.608 305.229 168.054 309.603 177C316.558 191.229 324.338 208.622 323.621 225C323.258 233.286 322.683 245.075 320.15 253C316.45 264.582 310.412 275.361 311.213 288C312.287 304.961 319.227 320.159 326.233 335C331.254 345.637 335.786 356.674 347.015 362.699C357.527 368.339 369.503 367 381 367L368 382C375.266 380.879 378.527 374.234 384.039 370.059C389.294 366.078 397.895 363.513 404.17 361.289C422.703 354.721 441.121 357.598 460 358L460 355L434 354L434 352C443.442 350.413 447.722 334.985 452.923 328.004C460.002 318.502 468.983 310.457 474.741 299.985C477.756 294.501 479.235 283.642 484.26 279.959C491.422 274.71 503.673 277 512 277L512 275L479 277C478.797 272.629 476.168 268.252 476.585 264C477.598 253.677 483.169 244.821 483.91 234C484.49 225.542 481.491 217.995 481.478 210C481.45 194.032 483.398 178.799 475.194 164C449.281 117.255 393.99 89.6852 342 101.961C333.962 103.859 323.938 103.333 316.425 106.858C305.381 112.04 295.941 125.206 291 136z"/>
<path style="fill:#828282; stroke:none;" d="M376 99L376 100L381 100L376 99z"/>
<path style="fill:#acacac; stroke:none;" d="M341 101L341 102L347 101L341 101z"/>
<path style="fill:#7c7c7c; stroke:none;" d="M357 100L357 101L371 101L357 100z"/>
<path style="fill:#a2a2a2; stroke:none;" d="M381 100L381 101L388 101L381 100z"/>
<path style="fill:#757575; stroke:none;" d="M352 101L352 102L357 102L352 101z"/>
<path style="fill:#ffffff; stroke:none;" d="M357 101.425C348.111 102.639 338.739 104.951 330 107.04C316.637 110.234 293.406 121.948 294.597 139C295.311 149.221 303.326 153.85 307.552 162.015C315.574 177.515 324.147 198.417 325.895 216C328.921 246.436 310.38 272.24 317.123 302C319.443 312.242 327.819 319.785 334.168 327.59C344.54 340.34 354.385 365.786 375 363.66C380.514 363.091 385.555 360.16 391 359.259C403.974 357.114 422.761 359.408 433.581 350.262C438.002 346.526 437.775 338.904 441.509 334.428C449.528 324.817 456.849 315.341 464.428 305.285C467.423 301.312 471.811 297.836 473.44 293C476.77 283.111 472.153 273.655 473.705 264C474.688 257.886 478.626 252.809 479.645 246.961C481.89 234.08 479.044 222.602 478.12 210C477.202 197.496 479.165 184.345 475.197 172.039C472.36 163.242 464.385 154.797 458.691 147.715C435.588 118.981 395.711 96.1409 357 101.425z"/>
<path style="fill:#acacac; stroke:none;" d="M388 101L388 102L392 102L388 101z"/>
<path style="fill:#a2a2a2; stroke:none;" d="M392 102L392 103L396 103L392 102z"/>
<path style="fill:#3c3c3c; stroke:none;" d="M401 104L401 105L410 107L410 106L401 104z"/>
<path style="fill:#7c7c7c; stroke:none;" d="M317 105L317 106L326 106L317 105z"/>
<path style="fill:#5d5d5d; stroke:none;" d="M396 106L396 107L400 107L396 106z"/>
<path style="fill:#666666; stroke:none;" d="M314.667 107.333L315.333 107.667L314.667 107.333z"/>
<path style="fill:#c2c2c2; stroke:none;" d="M398 107L398 108L410 110L398 107z"/>
<path style="fill:#7c7c7c; stroke:none;" d="M411.667 107.333L412.333 107.667L411.667 107.333z"/>
<path style="fill:#828282; stroke:none;" d="M312 108L312 110L314 108L312 108z"/>
<path style="fill:#464646; stroke:none;" d="M318 108L318 109L326 109L318 108z"/>
<path style="fill:#b5b5b5; stroke:none;" d="M317 109L317 110L323 110L317 109z"/>
<path style="fill:#a6a6a6; stroke:none;" d="M416 109L416 110L422 112L422 111L416 109z"/>
<path style="fill:#949494; stroke:none;" d="M310 110L310 112L312 110L310 110z"/>
<path style="fill:#acacac; stroke:none;" d="M314 113L317 110L314 113z"/>
<path style="fill:#4c4c4c; stroke:none;" d="M309 112L307 116L309 112z"/>
<path style="fill:#9c9c9c; stroke:none;" d="M422 112L422 113L426 114L426 113L422 112z"/>
<path style="fill:#a6a6a6; stroke:none;" d="M229 114L229 115L235 115L229 114z"/>
<path style="fill:#a2a2a2; stroke:none;" d="M235 115L235 116L240 116L235 115z"/>
<path style="fill:#666666; stroke:none;" d="M203 117L203 118L209 118L203 117z"/>
<path style="fill:#acacac; stroke:none;" d="M216 118L216 119L234 118L216 118z"/>
<path style="fill:#666666; stroke:none;" d="M243 117L243 118L248 119L248 118L243 117z"/>
<path style="fill:#8c8c8c; stroke:none;" d="M424.667 117.333L425.333 117.667L424.667 117.333z"/>
<path style="fill:#949494; stroke:none;" d="M432 117L435 119L432 117z"/>
<path style="fill:#ffffff; stroke:none;" d="M112 250C109.3 261.341 116.175 269.167 116.57 279.961C116.969 290.875 112.878 299.522 116.305 311C120.867 326.282 136.626 338.229 146.752 349.749C150.628 354.16 150.345 361.066 153.85 365.586C156.561 369.08 161.324 370.435 164.795 372.919C175.65 380.688 184.901 384.998 199 385L198 390C179.822 386.613 166.265 379.908 152.059 367.969C147.135 363.831 147.872 349.249 139.086 350.763C128.615 352.567 119.317 359.081 110 363.626C83.5601 376.523 58.3071 392.608 33.9961 409.826C23.2544 417.433 8.59723 414.23 3.13349 429.004C-4.23974 448.941 8.12454 460.325 20.6744 472.92C25.5946 477.857 28.482 484.207 34.0008 488.657C42.8871 495.821 53.9336 498.048 63.9105 502.951C68.7747 505.342 72.747 509.255 78 510.941C87.5476 514.006 100.049 512 110 512L177 512L318 512C340.675 512 365.557 514.918 388 511.791C400.045 510.113 412.625 506.164 422.996 499.844C428.227 496.656 433.49 488.757 424 488L427 493L427 495C422.003 495.431 420.728 492.57 420 488C389.53 488 361.695 497.504 331 493.424C323 492.361 302.627 487.297 305.975 474.99C311.486 454.728 351.419 466.201 351.771 441.019C351.911 430.984 331.898 438.933 327 441L328 446L322 441C310.809 443.127 299.74 448.413 289 452.201C279.621 455.508 269.771 457.093 261 462.09C253.425 466.405 243.471 481.266 234.999 480.811C203.601 479.123 181.903 456.545 156.91 440.449C140.069 429.602 116.887 423.854 97 423L97 419C103.502 419.822 114.902 424.26 121 422.361C125.944 420.821 129.513 415.771 134 413.271C141.63 409.02 155.329 404.763 164 404.094C176.199 403.153 195.8 409.994 200.63 393.999C204.102 382.5 191.202 364.377 185.746 353.83C184.333 351.098 181.203 341.158 184.588 338.921C188.557 336.3 190.988 354.385 192.03 357C195.391 365.431 203.915 374.443 205.647 383.039C207.02 389.856 202.843 398.12 200 404L212 406L212 408C186.092 414.168 146.511 397.995 127 423L127 424C136.299 429.771 147.421 430.536 157.015 436.871C179.485 451.709 206.888 481.867 236.91 476.852C243.948 475.676 249.327 464.621 256.17 461.083C277.425 450.095 306.32 439.799 329.999 436.715C336.317 435.892 342.311 430.707 348.829 432.478C361.247 435.853 354.023 450.423 347.561 455.776C338.274 463.469 324.937 462.358 315.104 468.533C307.796 473.122 308.78 480.331 314.87 485.427C322.149 491.518 336.168 489 345 489C352.886 489 361.257 491.646 369 490.812C387.099 488.861 405.48 481.288 424 484.214C430.312 485.211 435.068 491.009 430.485 496.816C425.631 502.965 413.744 510.297 406 511L406 512L498 512L506.181 485L507.09 458L511.871 432.91L512 381L512 278L482 280L473.502 302.907L468 313C462.527 314.555 461.269 318.861 457.897 323C450.897 331.591 440.81 342.076 438 353C444.694 353 457.366 351.409 461 358C439.598 357.558 418.76 356.397 398.09 363.465C393.441 365.054 386.896 366.911 383.143 370.059C377.912 374.447 375.086 382.737 367 382L367 380L380 368C368.057 368 355.822 368.282 345.209 361.657C335.676 355.705 330.241 343.622 325.652 334C318.822 319.679 310.784 303.565 310.302 287C309.96 275.215 316.448 265.808 319.491 255C321.727 247.057 322.772 234.316 322.946 226C323.474 200.749 310.603 172.112 296.542 152C290.64 143.559 286.117 134.631 276.981 128.742C270.31 124.441 260.492 125.059 253 123.66C248.199 122.764 243.803 120.226 239 119.22C212.984 113.772 174.887 123.671 154.17 140.094C145.646 146.851 138.086 157.316 131.622 166C123.765 176.554 116.916 184.001 113.769 197C110.696 209.689 111.307 224.121 110.104 237C109.737 240.933 108.873 247.267 112 250z"/>
<path style="fill:#7c7c7c; stroke:none;" d="M234 118L234 119L240 119L234 118z"/>
<path style="fill:#535353; stroke:none;" d="M296 126L303 119C298.572 118.097 296.972 122.289 296 126z"/>
<path style="fill:#7c7c7c; stroke:none;" d="M426 118L426 119L430 120L430 119L426 118z"/>
<path style="fill:#a6a6a6; stroke:none;" d="M190 119L190 120L195 120L190 119z"/>
<path style="fill:#acacac; stroke:none;" d="M435 119L435 120L439 121L439 120L435 119z"/>
<path style="fill:#666666; stroke:none;" d="M186 121L186 122L192 121L186 121z"/>
<path style="fill:#8c8c8c; stroke:none;" d="M204 120L204 121L208 121L204 120z"/>
<path style="fill:#949494; stroke:none;" d="M252 120L252 121L259 121L252 120z"/>
<path style="fill:#7c7c7c; stroke:none;" d="M302 121L302 122L306 121L302 121z"/>
<path style="fill:#5d5d5d; stroke:none;" d="M196 121L196 122L200 122L196 121z"/>
<path style="fill:#8c8c8c; stroke:none;" d="M248 122L248 123L251 123L248 122z"/>
<path style="fill:#6d6d6d; stroke:none;" d="M251 123L251 124L259 124L251 123z"/>
<path style="fill:#a6a6a6; stroke:none;" d="M270 123L270 124L275 124L270 123z"/>
<path style="fill:#4c4c4c; stroke:none;" d="M299 123L299 126L300 126L301 123L299 123z"/>
<path style="fill:#acacac; stroke:none;" d="M277 125L280 127L277 125z"/>
<path style="fill:#949494; stroke:none;" d="M180.667 126.333L181.333 126.667L180.667 126.333z"/>
<path style="fill:#7c7c7c; stroke:none;" d="M269 126L269 127L274 127L269 126z"/>
<path style="fill:#949494; stroke:none;" d="M295 126L294 130L295 130L295 126z"/>
<path style="fill:#8c8c8c; stroke:none;" d="M178.667 127.333L179.333 127.667L178.667 127.333z"/>
<path style="fill:#5d5d5d; stroke:none;" d="M298 127L297 130L298 127z"/>
<path style="fill:#8c8c8c; stroke:none;" d="M173 129L173 130L178 129L173 129z"/>
<path style="fill:#9c9c9c; stroke:none;" d="M449.333 136.667L449.667 137.333L449.333 136.667z"/>
<path style="fill:#6d6d6d; stroke:none;" d="M288.667 139.333L289.333 139.667L288.667 139.333z"/>
<path style="fill:#757575; stroke:none;" d="M294 139L294 142L295 142L294 139z"/>
<path style="fill:#9c9c9c; stroke:none;" d="M292 141L293 147L294 147L292 141z"/>
<path style="fill:#d2d2d2; stroke:none;" d="M141 155L150 145L141 155z"/>
<path style="fill:#828282; stroke:none;" d="M458.333 147.667L458.667 148.333L458.333 147.667z"/>
<path style="fill:#b5b5b5; stroke:none;" d="M463 154L467 159L463 154z"/>
<path style="fill:#828282; stroke:none;" d="M306.333 159.667L306.667 160.333L306.333 159.667z"/>
<path style="fill:#a2a2a2; stroke:none;" d="M134 160L133 164L134 164L136 160L134 160z"/>
<path style="fill:#868686; stroke:none;" d="M307.333 161.667L307.667 162.333L307.333 161.667z"/>
<path style="fill:#949494; stroke:none;" d="M304.333 162.667L304.667 163.333L304.333 162.667M308 163L308 166L309 166L308 163z"/>
<path style="fill:#dadada; stroke:none;" d="M131 164L118 184L119 184L133 164L131 164z"/>
<path style="fill:#acacac; stroke:none;" d="M305 164L305 168L306 168L305 164z"/>
<path style="fill:#3c3c3c; stroke:none;" d="M360 164C364.153 170.407 382.706 168.315 390 169.884C402.501 172.574 412.067 178.691 424 182.427C432.195 184.993 442.29 184.476 449.996 187.934C454.706 190.048 457.341 194.785 462 197C456.815 183.912 441.768 184.434 430 181.525C421.448 179.412 415.085 174.088 407 171.336C392.133 166.276 375.458 165.955 360 164z"/>
<path style="fill:#b5b5b5; stroke:none;" d="M471 164L472 168L473 168L471 164z"/>
<path style="fill:#bcbcbc; stroke:none;" d="M370 165L370 166L389 167L370 165z"/>
<path style="fill:#9c9c9c; stroke:none;" d="M476.333 166.667L476.667 167.333L476.333 166.667z"/>
<path style="fill:#b5b5b5; stroke:none;" d="M364 167L364 168L370 168L364 167z"/>
<path style="fill:#acacac; stroke:none;" d="M307 169L307 173L308 173L307 169M383 169L383 170L389 170L383 169z"/>
<path style="fill:#9c9c9c; stroke:none;" d="M403 170L403 171L406 171L403 170z"/>
<path style="fill:#acacac; stroke:none;" d="M395 171L395 172L400 172L395 171M476 176L476 181L477 181L476 176z"/>
<path style="fill:#434343; stroke:none;" d="M340 179C345.912 188.154 368.837 183.441 378 183.039C395.326 182.281 402.71 189.119 418 194.579C429.342 198.63 441.548 200.935 453 205C449.682 196.659 430.86 195.807 423 193.611C413.657 191.001 406.788 183.605 397 181.518C385.641 179.095 373.421 182.036 362 181.999C354.449 181.975 347.485 179.159 340 179z"/>
<path style="fill:#828282; stroke:none;" d="M115.333 180.667L115.667 181.333L115.333 180.667z"/>
<path style="fill:#cccccc; stroke:none;" d="M372 180L372 181L394 181L372 180z"/>
<path style="fill:#c2c2c2; stroke:none;" d="M354 181L354 182L371 182L354 181z"/>
<path style="fill:#d2d2d2; stroke:none;" d="M477 181L478 200L479 200L477 181z"/>
<path style="fill:#b5b5b5; stroke:none;" d="M373 183L373 184L397 184L373 183z"/>
<path style="fill:#acacac; stroke:none;" d="M438 183L438 184L443 184L438 183z"/>
<path style="fill:#8c8c8c; stroke:none;" d="M113.333 184.667L113.667 185.333L113.333 184.667z"/>
<path style="fill:#c2c2c2; stroke:none;" d="M354 184L354 185L370 185L354 184z"/>
<path style="fill:#acacac; stroke:none;" d="M112 186L111 192L112 192L112 186z"/>
<path style="fill:#6d6d6d; stroke:none;" d="M479 186L479 204L480 204L479 186z"/>
<path style="fill:#828282; stroke:none;" d="M482 186L482 200L483 200L482 186z"/>
<path style="fill:#6d6d6d; stroke:none;" d="M110 194L108 214L109 214L110 194z"/>
<path style="fill:#c6c6c6; stroke:none;" d="M426 194L426 195L435 196L426 194z"/>
<path style="fill:#535353; stroke:none;" d="M317 195L318 200L319 200L317 195z"/>
<path style="fill:#a2a2a2; stroke:none;" d="M462 195L460 197L460 198C462.251 197.527 463.118 197.14 462 195z"/>
<path style="fill:#9c9c9c; stroke:none;" d="M357 196L357 197L376 197L357 196z"/>
<path style="fill:#535353; stroke:none;" d="M350 200L396 203C390.761 194.912 369.572 196.997 361 197C356.852 197.002 352.584 196.343 350 200z"/>
<path style="fill:#a6a6a6; stroke:none;" d="M319 201L320 209L321 209L319 201z"/>
<path style="fill:#8c8c8c; stroke:none;" d="M396 201L395 204L396 201z"/>
<path style="fill:#757575; stroke:none;" d="M111 202L111 221L112 221L111 202z"/>
<path style="fill:#949494; stroke:none;" d="M478 204L478 208L479 208L478 204z"/>
<path style="fill:#4c4c4c; stroke:none;" d="M478 208L478 214L479 214L478 208z"/>
<path style="fill:#949494; stroke:none;" d="M481 208L481 213L482 213L481 208z"/>
<path style="fill:#7c7c7c; stroke:none;" d="M322 212L322 221L323 221L322 212M325 212L325 222L326 222L325 212z"/>
<path style="fill:#a2a2a2; stroke:none;" d="M394 215L395 215L397 213C394.86 211.882 394.473 212.749 394 215z"/>
<path style="fill:#3c3c3c; stroke:none;" d="M395 213L399 223L400 223C399.79 218.487 399.148 215.233 395 213z"/>
<path style="fill:#666666; stroke:none;" d="M441 213L441 214L446 214L441 213z"/>
<path style="fill:#c6c6c6; stroke:none;" d="M434 214C434.854 217.987 438.49 217 442 217L442 216C438.291 216 435.277 216.893 436 214L434 214z"/>
<path style="fill:#3c3c3c; stroke:none;" d="M435 215L435 216L454.91 217.988L467 229C461.425 215.833 448.443 211.027 435 215z"/>
<path style="fill:#a2a2a2; stroke:none;" d="M446 216L446 217L451 217L446 216z"/>
<path style="fill:#a6a6a6; stroke:none;" d="M451 217L451 218L456 218L451 217z"/>
<path style="fill:#a2a2a2; stroke:none;" d="M353 218L353 219L359 219L353 218z"/>
<path style="fill:#949494; stroke:none;" d="M400 218L400 223L399 223L399 220L398 220L398 224L401 224L400 218z"/>
<path style="fill:#030303; stroke:none;" d="M353 219C348.619 240.34 370.697 242.952 388 243C391.55 226.804 365.95 219.107 353 219z"/>
<path style="fill:#757575; stroke:none;" d="M481 220L479 242L480 242L481 220z"/>
<path style="fill:#8c8c8c; stroke:none;" d="M484 220L484 234L485 234L484 220z"/>
<path style="fill:#6d6d6d; stroke:none;" d="M112 222L112 228L113 228L112 222M323 222L323 228L324 228L323 222z"/>
<path style="fill:#ffffff; stroke:none;" d="M358 235L362 235L366 224C355.359 220.863 354.505 226.931 358 235z"/>
<path style="fill:#757575; stroke:none;" d="M373 223L373 224L376 224L373 223z"/>
<path style="fill:#bcbcbc; stroke:none;" d="M326 224L323 255L324 255L326 224z"/>
<path style="fill:#535353; stroke:none;" d="M435 224L432 236L434 236L437 224L435 224z"/>
<path style="fill:#757575; stroke:none;" d="M350 226L350 230L351 230L350 226z"/>
<path style="fill:#bcbcbc; stroke:none;" d="M111 228C108.627 235.486 105.366 259.635 112 265L112 250L111 228z"/>
<path style="fill:#626262; stroke:none;" d="M362 230L362 234L363 234L362 230z"/>
<path style="fill:#b5b5b5; stroke:none;" d="M106 232L105 241L106 241L106 232z"/>
<path style="fill:#7c7c7c; stroke:none;" d="M357.333 232.667L357.667 233.333L357.333 232.667z"/>
<path style="fill:#757575; stroke:none;" d="M384.667 232.333L385.333 232.667L384.667 232.333z"/>
<path style="fill:#a6a6a6; stroke:none;" d="M386 233L389 235L386 233z"/>
<path style="fill:#6d6d6d; stroke:none;" d="M321 234L320 253L321 253L321 234z"/>
<path style="fill:#a2a2a2; stroke:none;" d="M362 234L359 235L359 236L362 234z"/>
<path style="fill:#666666; stroke:none;" d="M381 236L384 235L381 236z"/>
<path style="fill:#535353; stroke:none;" d="M363 235L360 236L360 237L363 235z"/>
<path style="fill:#ffffff; stroke:none;" d="M382 235L381 240L385 240L384 235L382 235z"/>
<path style="fill:#a6a6a6; stroke:none;" d="M384 236L385 240L386 240L384 236z"/>
<path style="fill:#7c7c7c; stroke:none;" d="M390 236L390 239L391 239L390 236z"/>
<path style="fill:#3c3c3c; stroke:none;" d="M357 238L357 239L365 240L357 238z"/>
<path style="fill:#5d5d5d; stroke:none;" d="M483 240L483 246L484 246L483 240z"/>
<path style="fill:#7c7c7c; stroke:none;" d="M105 241L105 249L106 249L105 241z"/>
<path style="fill:#757575; stroke:none;" d="M108 241L108 248L109 248L108 241z"/>
<path style="fill:#626262; stroke:none;" d="M376 242L376 243L380 243L376 242z"/>
<path style="fill:#828282; stroke:none;" d="M480 242L480 246L481 246L480 242z"/>
<path style="fill:#a6a6a6; stroke:none;" d="M378 243L378 244L387 244L378 243z"/>
<path style="fill:#7c7c7c; stroke:none;" d="M436 245L436 246L444 246L436 245z"/>
<path style="fill:#acacac; stroke:none;" d="M451 245L451 246L456 246L451 245z"/>
<path style="fill:#030303; stroke:none;" d="M432 257C438.191 258.963 448.011 265.481 453.892 265.624C459.969 265.773 460.937 254.094 460 250L464 250L464 247C451.311 246.738 434.178 240.223 432 257z"/>
<path style="fill:#a2a2a2; stroke:none;" d="M432 250L435 247L432 250z"/>
<path style="fill:#666666; stroke:none;" d="M437 248L437 249L446 249L437 248z"/>
<path style="fill:#9c9c9c; stroke:none;" d="M464 248L460 252C462.428 251.237 465.059 250.825 464 248z"/>
<path style="fill:#ffffff; stroke:none;" d="M436 249C436.344 255.216 439.213 256.246 445 257L446 249L436 249z"/>
<path style="fill:#5d5d5d; stroke:none;" d="M432 250L431 256L432 256L432 250z"/>
<path style="fill:#6d6d6d; stroke:none;" d="M435 250L437 255L435 250z"/>
<path style="fill:#5d5d5d; stroke:none;" d="M106 255L106 260L107 260L106 255z"/>
<path style="fill:#949494; stroke:none;" d="M478 255L476 268L477 268L478 255z"/>
<path style="fill:#b5b5b5; stroke:none;" d="M459 257L457 266C459.79 263.744 460.283 260.289 459 257z"/>
<path style="fill:#5d5d5d; stroke:none;" d="M448 259L448 260L452 260L448 259z"/>
<path style="fill:#b5b5b5; stroke:none;" d="M455 259L450 260L456 263L455 259z"/>
<path style="fill:#9c9c9c; stroke:none;" d="M316 260L316 265L317 265L316 260z"/>
<path style="fill:#757575; stroke:none;" d="M443.667 260.333L444.333 260.667L443.667 260.333M446.667 262.333L447.333 262.667L446.667 262.333z"/>
<path style="fill:#6d6d6d; stroke:none;" d="M420 263L420 264L422 267L423 267L423 263L420 263z"/>
<path style="fill:#070707; stroke:none;" d="M420 264C418.589 269.929 418.697 276.462 421.564 282C423.398 285.542 428.126 289.981 428.187 294.169C428.264 299.471 420.284 303.238 419 309L411 307L411 308C418.644 314.817 430.601 304.781 431.373 294.961C431.836 289.065 425.252 282.843 422.923 277.715C421.112 273.728 422 268.285 422 264L420 264z"/>
<path style="fill:#535353; stroke:none;" d="M473 264L473 269L474 269L473 264z"/>
<path style="fill:#3c3c3c; stroke:none;" d="M111 265L115 278L116 278L111 265z"/>
<path style="fill:#b5b5b5; stroke:none;" d="M453 266L453 267L457 267L453 266z"/>
<path style="fill:#cccccc; stroke:none;" d="M422 267L422 275L423 275L422 267z"/>
<path style="fill:#b5b5b5; stroke:none;" d="M313 268L313 272L314 272L313 268z"/>
<path style="fill:#9c9c9c; stroke:none;" d="M418 268L418 275L419 275L418 268z"/>
<path style="fill:#6d6d6d; stroke:none;" d="M110 269L111 276L112 276L110 269z"/>
<path style="fill:#949494; stroke:none;" d="M474 269L475 286L476 286L474 269z"/>
<path style="fill:#a2a2a2; stroke:none;" d="M479 273L479 277L486 277L486 276L479 273z"/>
<path style="fill:#d2d2d2; stroke:none;" d="M488 273L488 274L512 274L488 273z"/>
<path style="fill:#535353; stroke:none;" d="M488 274L488 275L512 275L488 274z"/>
<path style="fill:#acacac; stroke:none;" d="M311 275L311 284L312 284L311 275z"/>
<path style="fill:#8c8c8c; stroke:none;" d="M419 275L419 279L420 279L419 275z"/>
<path style="fill:#5d5d5d; stroke:none;" d="M422 275L422 279L423 279L422 275z"/>
<path style="fill:#c2c2c2; stroke:none;" d="M423 275L423 279L424 279L423 275z"/>
<path style="fill:#b5b5b5; stroke:none;" d="M488 279L512 278C507.227 275.997 491.527 274.964 488 279z"/>
<path style="fill:#9c9c9c; stroke:none;" d="M116 278L116 284L117 284L116 278z"/>
<path style="fill:#626262; stroke:none;" d="M483 279L483 280L488 280L483 279z"/>
<path style="fill:#c6c6c6; stroke:none;" d="M310 284L311 292L312 292L310 284z"/>
<path style="fill:#626262; stroke:none;" d="M374 294L375 294C375.264 285.865 379.782 285.006 387 285L387 287L377 287L378 297L379 297L378 288L388 288L388 284C379.044 284 374.036 283.741 374 294z"/>
<path style="fill:#949494; stroke:none;" d="M480 284L480 288L481 288L480 284z"/>
<path style="fill:#101010; stroke:none;" d="M386 302C381.868 295.887 377.186 295.663 377 287L387 287L387 285C383.887 285 379.028 284.179 376.603 286.603C369.424 293.783 379.083 301.918 386 302z"/>
<path style="fill:#a6a6a6; stroke:none;" d="M423 285L425 290L426 290L423 285z"/>
<path style="fill:#949494; stroke:none;" d="M427 285L429 288L427 285z"/>
<path style="fill:#626262; stroke:none;" d="M474 286L474 291L475 291L474 286z"/>
<path style="fill:#757575; stroke:none;" d="M110 288L110 301L111 301L110 288z"/>
<path style="fill:#828282; stroke:none;" d="M113 289L113 301L114 301L115 289L113 289z"/>
<path style="fill:#5d5d5d; stroke:none;" d="M428 295L424 301L428 295z"/>
<path style="fill:#626262; stroke:none;" d="M393 299L393 300L398 300L393 299z"/>
<path style="fill:#c2c2c2; stroke:none;" d="M425 305L431 299L425 305z"/>
<path style="fill:#6d6d6d; stroke:none;" d="M386 300L383 302L383 303C385.348 302.706 386.951 302.507 386 300z"/>
<path style="fill:#101010; stroke:none;" d="M393 300L393 302L402 303L393 300z"/>
<path style="fill:#868686; stroke:none;" d="M111 301L113 314L114 314L111 301z"/>
<path style="fill:#6d6d6d; stroke:none;" d="M393 302L393 303L398 303L393 302z"/>
<path style="fill:#a2a2a2; stroke:none;" d="M473 302L469 308L473 302z"/>
<path style="fill:#949494; stroke:none;" d="M314 304L314 307L315 307L314 304z"/>
<path style="fill:#9c9c9c; stroke:none;" d="M409.333 306.667L409.667 307.333L409.333 306.667z"/>
<path style="fill:#3c3c3c; stroke:none;" d="M410 306L413 310L411 308L411 307L414 307L410 306z"/>
<path style="fill:#757575; stroke:none;" d="M316 310L316 317L317 317L316 310z"/>
<path style="fill:#868686; stroke:none;" d="M321.333 310.667L321.667 311.333L321.333 310.667z"/>
<path style="fill:#9c9c9c; stroke:none;" d="M467 310L467 313L468 313L467 310z"/>
<path style="fill:#828282; stroke:none;" d="M320 315L320 320L321 320L320 315z"/>
<path style="fill:#acacac; stroke:none;" d="M317 317L319 325L320 325L317 317z"/>
<path style="fill:#ffffff; stroke:none;" d="M321 318C321.862 324.216 325.637 326.744 328.284 332.039C335.389 346.255 341.728 361.407 360 363L360 362L321 318z"/>
<path style="fill:#3c3c3c; stroke:none;" d="M360 319L360 321L372 324L362 320L362 319L365 319L360 319z"/>
<path style="fill:#101010; stroke:none;" d="M362 319L362 320L383 329.165L417 340C416.521 337.019 416.017 334.384 412.867 333.228C403.457 329.777 392.551 329.702 383 326.186C375.412 323.393 370.634 317.6 362 319z"/>
<path style="fill:#9c9c9c; stroke:none;" d="M460 318L459 322L460 322L460 318z"/>
<path style="fill:#535353; stroke:none;" d="M121 319L123 322L121 319z"/>
<path style="fill:#a2a2a2; stroke:none;" d="M118 320L120 325L121 325L118 320z"/>
<path style="fill:#6d6d6d; stroke:none;" d="M123 322L123 325L124 325L123 322z"/>
<path style="fill:#b5b5b5; stroke:none;" d="M325 322L327 325L325 322z"/>
<path style="fill:#cccccc; stroke:none;" d="M454 327L459 322L454 327z"/>
<path style="fill:#7c7c7c; stroke:none;" d="M372.667 324.333L373.333 324.667L372.667 324.333z"/>
<path style="fill:#949494; stroke:none;" d="M320.333 325.667L320.667 326.333L320.333 325.667z"/>
<path style="fill:#6d6d6d; stroke:none;" d="M376.667 326.333L377.333 326.667L376.667 326.333z"/>
<path style="fill:#9c9c9c; stroke:none;" d="M382 326L382 327L386 327L382 326z"/>
<path style="fill:#828282; stroke:none;" d="M378 327L381 329L378 327z"/>
<path style="fill:#acacac; stroke:none;" d="M453 327L450 333L451 333L453 327z"/>
<path style="fill:#828282; stroke:none;" d="M326 328L327 332L328 332L326 328z"/>
<path style="fill:#949494; stroke:none;" d="M335.333 328.667L335.667 329.333L335.333 328.667z"/>
<path style="fill:#7c7c7c; stroke:none;" d="M392.667 331.333L393.333 331.667L392.667 331.333z"/>
<path style="fill:#acacac; stroke:none;" d="M402 331L402 332L408 332L402 331z"/>
<path style="fill:#7c7c7c; stroke:none;" d="M409 332L409 333L416 334L409 332z"/>
<path style="fill:#666666; stroke:none;" d="M325 333L327 336L325 333z"/>
<path style="fill:#626262; stroke:none;" d="M396 333L396 334L404 335L396 333z"/>
<path style="fill:#949494; stroke:none;" d="M128 334L130 337L128 334z"/>
<path style="fill:#b5b5b5; stroke:none;" d="M416 334L417 340L418 340L416 334z"/>
<path style="fill:#a6a6a6; stroke:none;" d="M403 335L403 336L408 336L403 335z"/>
<path style="fill:#535353; stroke:none;" d="M184 337L184 341L185 341L187 338L184 337z"/>
<path style="fill:#868686; stroke:none;" d="M414 337L417 341L417 340L414 337M446 337L446 340L447 340L446 337z"/>
<path style="fill:#949494; stroke:none;" d="M183 338L183 345L184 345L183 338z"/>
<path style="fill:#101010; stroke:none;" d="M185 338C182.668 351.148 189.394 364.555 195.295 376C197.907 381.067 202.913 384.664 201.697 391C197.789 411.359 177.503 403.761 163 405.104C154.622 405.88 146.027 408.968 138 411.375C131.027 413.466 126.617 420.776 120 422.517C114.077 424.075 104.086 419.895 98 419C99.0942 424.133 105.881 422.537 110 423.833C122.008 427.614 134.184 428.974 145.917 434.222C173.15 446.404 191.401 473.295 222 478.111C227.669 479.003 234.916 481.976 240.778 479.667C245.144 477.946 247.676 471.245 251.028 468.083C254.442 464.862 260.027 464.263 262 460C247.485 461.006 243.963 480.02 230 477.741C189.574 471.141 165.567 429.043 125 425C144.01 401.441 184.476 408 211 408L211 406L199 405C216.48 380.828 187.068 362.63 187 338L185 338z"/>
<path style="fill:#626262; stroke:none;" d="M187 338L187 347L188 347L187 338z"/>
<path style="fill:#bcbcbc; stroke:none;" d="M188 339L190 355L191 355L188 339z"/>
<path style="fill:#7c7c7c; stroke:none;" d="M437.333 341.667L437.667 342.333L437.333 341.667z"/>
<path style="fill:#a2a2a2; stroke:none;" d="M141.667 345.333L142.333 345.667L141.667 345.333z"/>
<path style="fill:#c2c2c2; stroke:none;" d="M184 345L184 353L185 353L184 345z"/>
<path style="fill:#9c9c9c; stroke:none;" d="M134.667 347.333L135.333 347.667L134.667 347.333z"/>
<path style="fill:#868686; stroke:none;" d="M140 349L140 350L143 350L140 349z"/>
<path style="fill:#3c3c3c; stroke:none;" d="M147 349L148 355L149 355L147 349z"/>
<path style="fill:#535353; stroke:none;" d="M127 351L127 352L133 351L127 351z"/>
<path style="fill:#5d5d5d; stroke:none;" d="M129 353L129 354L136 353L129 353z"/>
<path style="fill:#bcbcbc; stroke:none;" d="M427 352L427 353L431 353L427 352z"/>
<path style="fill:#828282; stroke:none;" d="M434 352L434 354L451 354L434 352z"/>
<path style="fill:#c2c2c2; stroke:none;" d="M452 354L452 355L460 355L452 354z"/>
<path style="fill:#757575; stroke:none;" d="M146 355L147 359L148 359L146 355z"/>
<path style="fill:#7c7c7c; stroke:none;" d="M343.333 355.667L343.667 356.333L343.333 355.667z"/>
<path style="fill:#868686; stroke:none;" d="M460 355L460 358L461 358L460 355z"/>
<path style="fill:#7c7c7c; stroke:none;" d="M426 356L426 357L451 357L426 356z"/>
<path style="fill:#5d5d5d; stroke:none;" d="M406 357L406 358L417 358L406 357z"/>
<path style="fill:#949494; stroke:none;" d="M192 358L193 362L194 362L192 358z"/>
<path style="fill:#757575; stroke:none;" d="M107 360L107 361L113 360L107 360z"/>
<path style="fill:#bcbcbc; stroke:none;" d="M388 359L388 360L401 360L388 359z"/>
<path style="fill:#4c4c4c; stroke:none;" d="M387 360L387 361L400 361L387 360z"/>
<path style="fill:#8c8c8c; stroke:none;" d="M402 361L402 362L417 361L402 361z"/>
<path style="fill:#949494; stroke:none;" d="M104.667 361.333L105.333 361.667L104.667 361.333z"/>
<path style="fill:#7c7c7c; stroke:none;" d="M149 361L149 367L150 367L149 361z"/>
<path style="fill:#9c9c9c; stroke:none;" d="M343 361L343 362L346 362L343 361z"/>
<path style="fill:#7c7c7c; stroke:none;" d="M350 361L350 362L353 362L350 361z"/>
<path style="fill:#a2a2a2; stroke:none;" d="M382 361L382 362L387 362L382 361z"/>
<path style="fill:#c2c2c2; stroke:none;" d="M104 365L104 366L113 363L104 365z"/>
<path style="fill:#828282; stroke:none;" d="M353 362L353 363L356 363L353 362z"/>
<path style="fill:#b5b5b5; stroke:none;" d="M357 363L357 364L362 362L357 363z"/>
<path style="fill:#828282; stroke:none;" d="M376 363L376 364L382 363L376 363z"/>
<path style="fill:#6d6d6d; stroke:none;" d="M362 363L358 364L358 365L362 363z"/>
<path style="fill:#626262; stroke:none;" d="M368 363L368 364L371 364L368 363z"/>
<path style="fill:#5d5d5d; stroke:none;" d="M371 364L371 365L376 365L371 364z"/>
<path style="fill:#535353; stroke:none;" d="M359 367L359 368L367 368L359 367z"/>
<path style="fill:#a2a2a2; stroke:none;" d="M367 367L367 368L381 369L367 367z"/>
<path style="fill:#4c4c4c; stroke:none;" d="M376 374L381 369L376 374z"/>
<path style="fill:#b5b5b5; stroke:none;" d="M164 372L167 374L164 372z"/>
<path style="fill:#8c8c8c; stroke:none;" d="M200.333 372.667L200.667 373.333L200.333 372.667z"/>
<path style="fill:#828282; stroke:none;" d="M88 374L88 375L92 374L88 374z"/>
<path style="fill:#8c8c8c; stroke:none;" d="M158.667 373.333L159.333 373.667L158.667 373.333z"/>
<path style="fill:#bcbcbc; stroke:none;" d="M379 374L375 379L379 374z"/>
<path style="fill:#4c4c4c; stroke:none;" d="M78 379L82 376L78 379z"/>
<path style="fill:#5d5d5d; stroke:none;" d="M71 382L74 380L71 382z"/>
<path style="fill:#bcbcbc; stroke:none;" d="M172 380L172 381L178 381L172 380z"/>
<path style="fill:#868686; stroke:none;" d="M205 380L205 388L206 388L205 380z"/>
<path style="fill:#a2a2a2; stroke:none;" d="M367.333 380.667L367.667 381.333L367.333 380.667z"/>
<path style="fill:#757575; stroke:none;" d="M178 381L181 383L178 381z"/>
<path style="fill:#828282; stroke:none;" d="M368 382L368 383L372 383L368 382z"/>
<path style="fill:#3c3c3c; stroke:none;" d="M58 389L58 390L70 383L58 389z"/>
<path style="fill:#666666; stroke:none;" d="M182.667 383.333L183.333 383.667L182.667 383.333z"/>
<path style="fill:#535353; stroke:none;" d="M184 384L184 385L189 385L184 384z"/>
<path style="fill:#8c8c8c; stroke:none;" d="M193 385L193 386L197 386L193 385z"/>
<path style="fill:#828282; stroke:none;" d="M198 385L198 388L199 388L198 385z"/>
<path style="fill:#9c9c9c; stroke:none;" d="M184 387L184 388L188 388L184 387z"/>
<path style="fill:#949494; stroke:none;" d="M188 388L188 389L194 389L188 388z"/>
<path style="fill:#6d6d6d; stroke:none;" d="M195 389L195 390L198 390L195 389z"/>
<path style="fill:#757575; stroke:none;" d="M62.6667 390.333L63.3333 390.667L62.6667 390.333z"/>
<path style="fill:#a6a6a6; stroke:none;" d="M201 390L201 394L202 394L201 390z"/>
<path style="fill:#4c4c4c; stroke:none;" d="M40 400L40 401L46 397L40 400z"/>
<path style="fill:#535353; stroke:none;" d="M184 404L184 405L198 402L184 404z"/>
<path style="fill:#434343; stroke:none;" d="M32 407L37 403L32 407z"/>
<path style="fill:#4c4c4c; stroke:none;" d="M199 403L211 406L211 405L199 403z"/>
<path style="fill:#8c8c8c; stroke:none;" d="M160 404L160 405L172 405L160 404z"/>
<path style="fill:#bcbcbc; stroke:none;" d="M28 412L28 413L40 405L28 412z"/>
<path style="fill:#7c7c7c; stroke:none;" d="M155 406L155 407L160 406L155 406z"/>
<path style="fill:#868686; stroke:none;" d="M172 405L172 406L184 406L172 405z"/>
<path style="fill:#757575; stroke:none;" d="M211.333 406.667L211.667 407.333L211.333 406.667z"/>
<path style="fill:#626262; stroke:none;" d="M160 407L160 408L172 408L160 407z"/>
<path style="fill:#666666; stroke:none;" d="M188 408L188 409L211 409L188 408z"/>
<path style="fill:#8c8c8c; stroke:none;" d="M140.667 410.333L141.333 410.667L140.667 410.333z"/>
<path style="fill:#949494; stroke:none;" d="M139 414L139 415L145 414L139 414z"/>
<path style="fill:#7c7c7c; stroke:none;" d="M15 415L15 416L22 416L15 415z"/>
<path style="fill:#a2a2a2; stroke:none;" d="M97 419L97 423L102 423L102 422L97 419M104 420L104 421L110 421L104 420z"/>
<path style="fill:#a6a6a6; stroke:none;" d="M125 425L129 425L129 424L128 422L125 425z"/>
<path style="fill:#626262; stroke:none;" d="M102 423L102 424L110 424L102 423z"/>
<path style="fill:#757575; stroke:none;" d="M118 423L118 424L121 424L118 423z"/>
<path style="fill:#7c7c7c; stroke:none;" d="M2 424L1 427L2 424z"/>
<path style="fill:#5d5d5d; stroke:none;" d="M122 427L122 428L130 429L122 427z"/>
<path style="fill:#b5b5b5; stroke:none;" d="M139 428L139 429L143 429L139 428z"/>
<path style="fill:#acacac; stroke:none;" d="M130 429L130 430L134 430L130 429z"/>
<path style="fill:#757575; stroke:none;" d="M144 430L144 431L147 431L144 430z"/>
<path style="fill:#828282; stroke:none;" d="M337 434L337 435L351 433L337 434z"/>
<path style="fill:#868686; stroke:none;" d="M150.667 433.333L151.333 433.667L150.667 433.333z"/>
<path style="fill:#101010; stroke:none;" d="M264 458L264 459L322 441L328 445L323 441L323 440C330.025 439.981 343.999 433.177 349.656 435.873C356.648 439.205 350.874 448.776 346.995 451.844C336.387 460.236 320.639 464.251 308 469C307.609 472.208 305.83 475.774 306.488 479C309.417 493.376 328.131 492 339 492C349.515 492 360.648 494.846 371 493.896C385.408 492.574 399.202 486.754 413.999 487.034C421.161 487.169 420.192 494.062 426 496C425.617 494.557 422.092 486.621 426.831 488.345C434.009 490.957 424.498 498.204 422.169 499.934C412.538 507.087 401.393 508.045 390 511L390 512C403.394 512 414.879 509.123 425.995 501.384C430.943 497.94 435.949 487.802 426.906 485.318C409.132 480.436 386.714 489.014 369 490.7C355.909 491.946 332.536 492.94 320.09 488.44C315.21 486.675 312.512 481.405 308 479C314.473 459.069 344.292 468.208 352.891 449.91C353.756 448.07 354.341 446.001 354.674 444C357.356 427.911 341.18 434.715 332 436.245C308.835 440.108 286.051 449.644 264 458z"/>
<path style="fill:#7c7c7c; stroke:none;" d="M145 434L145 435L148 435L145 434z"/>
<path style="fill:#b5b5b5; stroke:none;" d="M1 435L1 448L2 448L1 435z"/>
<path style="fill:#a2a2a2; stroke:none;" d="M154 435L157 437L154 435z"/>
<path style="fill:#828282; stroke:none;" d="M344 435L344 436L351 436L344 435z"/>
<path style="fill:#bcbcbc; stroke:none;" d="M510 436L510 445L511 445L510 436z"/>
<path style="fill:#101010; stroke:none;" d="M511 436L508.09 456L507.177 483.996L499 512L502 512L509.37 486L510.093 458L511 436z"/>
<path style="fill:#868686; stroke:none;" d="M157 437L160 439L157 437z"/>
<path style="fill:#949494; stroke:none;" d="M346 437L346 438L350 438L346 437z"/>
<path style="fill:#8c8c8c; stroke:none;" d="M352 437L350 450L351 450L352 437z"/>
<path style="fill:#626262; stroke:none;" d="M355 437L355 444L356 444L355 437z"/>
<path style="fill:#070707; stroke:none;" d="M341 439L341 441L350 438L341 439z"/>
<path style="fill:#6d6d6d; stroke:none;" d="M316.667 439.333L317.333 439.667L316.667 439.333z"/>
<path style="fill:#868686; stroke:none;" d="M340 439C340.796 442.716 343.637 442 347 442L347 441L340 439z"/>
<path style="fill:#acacac; stroke:none;" d="M323 440L323 441L328 443L328 440L323 440z"/>
<path style="fill:#5d5d5d; stroke:none;" d="M310 441L310 442L314 442L310 441z"/>
<path style="fill:#7c7c7c; stroke:none;" d="M160.667 443.333L161.333 443.667L160.667 443.333M314.667 443.333L315.333 443.667L314.667 443.333z"/>
<path style="fill:#757575; stroke:none;" d="M325 445L325 446L328 446L325 445z"/>
<path style="fill:#7c7c7c; stroke:none;" d="M354 445L354 448L355 448L354 445z"/>
<path style="fill:#acacac; stroke:none;" d="M509 445L509 449L510 449L509 445z"/>
<path style="fill:#7c7c7c; stroke:none;" d="M294.667 446.333L295.333 446.667L294.667 446.333z"/>
<path style="fill:#868686; stroke:none;" d="M292.667 447.333L293.333 447.667L292.667 447.333z"/>
<path style="fill:#7c7c7c; stroke:none;" d="M353.333 448.667L353.667 449.333L353.333 448.667z"/>
<path style="fill:#8c8c8c; stroke:none;" d="M174 449L177 451L174 449z"/>
<path style="fill:#9c9c9c; stroke:none;" d="M282 450L282 451L285 451L282 450z"/>
<path style="fill:#828282; stroke:none;" d="M508 450L508 453L509 453L508 450z"/>
<path style="fill:#757575; stroke:none;" d="M278 451L278 452L282 452L278 451z"/>
<path style="fill:#dadada; stroke:none;" d="M511 451L511 483L512 483L511 451z"/>
<path style="fill:#949494; stroke:none;" d="M273 453L273 454L278 453L273 453z"/>
<path style="fill:#828282; stroke:none;" d="M174.667 453.333L175.333 453.667L174.667 453.333z"/>
<path style="fill:#7c7c7c; stroke:none;" d="M3 454L3 457L4 457L3 454z"/>
<path style="fill:#bcbcbc; stroke:none;" d="M507 454L507 483L508 483L507 454z"/>
<path style="fill:#3c3c3c; stroke:none;" d="M510 454L510 483L511 483L510 454z"/>
<path style="fill:#8c8c8c; stroke:none;" d="M0.333333 455.667L0.666667 456.333L0.333333 455.667z"/>
<path style="fill:#3c3c3c; stroke:none;" d="M259 459L259 460L263 462L267 460L267 459L264 459L264 458L269 457L259 459z"/>
<path style="fill:#626262; stroke:none;" d="M340.667 456.333L341.333 456.667L340.667 456.333z"/>
<path style="fill:#acacac; stroke:none;" d="M344 457L344 458L348 457L344 457z"/>
<path style="fill:#ffffff; stroke:none;" d="M0 457L0 491L1 491L14 470L0 457z"/>
<path style="fill:#828282; stroke:none;" d="M1 457L2 461L3 461L1 457z"/>
<path style="fill:#7c7c7c; stroke:none;" d="M184.667 457.333L185.333 457.667L184.667 457.333z"/>
<path style="fill:#757575; stroke:none;" d="M338.667 457.333L339.333 457.667L338.667 457.333z"/>
<path style="fill:#535353; stroke:none;" d="M184 460L187 462L184 460z"/>
<path style="fill:#9c9c9c; stroke:none;" d="M254 463L257 462L254 463z"/>
<path style="fill:#949494; stroke:none;" d="M325 461L325 462L328 462L325 461z"/>
<path style="fill:#868686; stroke:none;" d="M320.667 463.333L321.333 463.667L320.667 463.333z"/>
<path style="fill:#acacac; stroke:none;" d="M196 464L202 468L202 467L196 464z"/>
<path style="fill:#c6c6c6; stroke:none;" d="M248 472L258 465C253.304 463.921 249.862 468.092 248 472z"/>
<path style="fill:#757575; stroke:none;" d="M317.667 464.333L318.333 464.667L317.667 464.333z"/>
<path style="fill:#828282; stroke:none;" d="M312.667 466.333L313.333 466.667L312.667 466.333z"/>
<path style="fill:#949494; stroke:none;" d="M245 468L245 471L246 471L245 468z"/>
<path style="fill:#626262; stroke:none;" d="M307 470L306 475L307 475L307 470M14 471L12 476L14 471z"/>
<path style="fill:#757575; stroke:none;" d="M310 471L310 474L311 474L312 471L310 471z"/>
<path style="fill:#ffffff; stroke:none;" d="M17 475L13 478L1.9838 496L0 512C16.5116 512 34.9677 514.245 45 498C30.6348 494.276 28.9085 480.603 17 475z"/>
<path style="fill:#8c8c8c; stroke:none;" d="M219 475L219 476L226 476L219 475z"/>
<path style="fill:#828282; stroke:none;" d="M240.333 475.667L240.667 476.333L240.333 475.667z"/>
<path style="fill:#6d6d6d; stroke:none;" d="M305 475L305 480L306 480L305 475z"/>
<path style="fill:#7c7c7c; stroke:none;" d="M308 476L308 479L309 479L308 476z"/>
<path style="fill:#828282; stroke:none;" d="M227 477L227 478L240 478L227 477z"/>
<path style="fill:#757575; stroke:none;" d="M9.33333 478.667L9.66667 479.333L9.33333 478.667z"/>
<path style="fill:#7c7c7c; stroke:none;" d="M218 478L218 479L225 479L218 478z"/>
<path style="fill:#cccccc; stroke:none;" d="M12 480L8 488L9 488L12 480z"/>
<path style="fill:#666666; stroke:none;" d="M232 480L232 481L241 481L232 480z"/>
<path style="fill:#757575; stroke:none;" d="M6 482L6 485L7 485L6 482z"/>
<path style="fill:#8c8c8c; stroke:none;" d="M506 483L506 488L507 488L506 483z"/>
<path style="fill:#ffffff; stroke:none;" d="M510 483L505 506L502 506L502 512L512 512L512 483L510 483z"/>
<path style="fill:#757575; stroke:none;" d="M406 484L406 485L416 485L406 484z"/>
<path style="fill:#434343; stroke:none;" d="M416 484L416 485L427 485L416 484z"/>
<path style="fill:#666666; stroke:none;" d="M395 487L406 486C402.612 484.578 397.554 484.077 395 487z"/>
<path style="fill:#5d5d5d; stroke:none;" d="M509 485L509 489L510 489L509 485M430 486L432 489L430 486z"/>
<path style="fill:#8c8c8c; stroke:none;" d="M384 487L384 488L392 488L384 487z"/>
<path style="fill:#757575; stroke:none;" d="M408 487L408 488L420 488L408 487z"/>
<path style="fill:#8c8c8c; stroke:none;" d="M424 487L424 488L428 488L424 487z"/>
<path style="fill:#828282; stroke:none;" d="M318 488L318 489L323 489L318 488z"/>
<path style="fill:#8c8c8c; stroke:none;" d="M396 488L396 489L408 489L396 488z"/>
<path style="fill:#acacac; stroke:none;" d="M420 488L420 492L421 492L420 488z"/>
<path style="fill:#6d6d6d; stroke:none;" d="M423 488L423 492L424 492L423 488M505.333 488.667L505.667 489.333L505.333 488.667z"/>
<path style="fill:#acacac; stroke:none;" d="M30 489L35 493L35 492L30 489z"/>
<path style="fill:#5d5d5d; stroke:none;" d="M326 489L326 490L331 490L326 489z"/>
<path style="fill:#9c9c9c; stroke:none;" d="M331 489L331 490L357 490L331 489z"/>
<path style="fill:#828282; stroke:none;" d="M374 489L374 490L378 490L374 489z"/>
<path style="fill:#5d5d5d; stroke:none;" d="M432 489L432 494L433 494L432 489z"/>
<path style="fill:#757575; stroke:none;" d="M384 490L384 491L392 491L384 490z"/>
<path style="fill:#a6a6a6; stroke:none;" d="M317 491L317 492L331 493L317 491M507 491L507 495L508 495L507 491z"/>
<path style="fill:#9c9c9c; stroke:none;" d="M3 492L3 494L5 492L3 492z"/>
<path style="fill:#949494; stroke:none;" d="M40 492L43 494L40 492z"/>
<path style="fill:#666666; stroke:none;" d="M331 492L331 493L356 493L331 492z"/>
<path style="fill:#4c4c4c; stroke:none;" d="M36 493L39 495L36 493z"/>
<path style="fill:#dadada; stroke:none;" d="M331 493L331 494L363 494L331 493z"/>
<path style="fill:#b5b5b5; stroke:none;" d="M421 493L423 496L421 493z"/>
<path style="fill:#666666; stroke:none;" d="M426.333 493.667L426.667 494.333L426.333 493.667z"/>
<path style="fill:#b5b5b5; stroke:none;" d="M363 494L363 495L374 495L363 494z"/>
<path style="fill:#9c9c9c; stroke:none;" d="M502 494L502 499L503 499L502 494z"/>
<path style="fill:#6d6d6d; stroke:none;" d="M0 496L0 506L1 506L0 496M501 499L500 506L501 506L501 499z"/>
<path style="fill:#ffffff; stroke:none;" d="M35 512L74 512C67.9695 509.007 55.6232 500.262 49 500.812C43.6621 501.256 38.0666 508.094 35 512z"/>
<path style="fill:#252525; stroke:none;" d="M376 500L381 507C380.699 503.048 379.882 501.178 376 500z"/>
<path style="fill:#8c8c8c; stroke:none;" d="M504 500L504 506L505 506L504 500z"/>
<path style="fill:#757575; stroke:none;" d="M52 501L52 502L58 504L58 503L52 501z"/>
<path style="fill:#7c7c7c; stroke:none;" d="M39 504L42 503L39 504z"/>
<path style="fill:#c2c2c2; stroke:none;" d="M61 502L61 503L67 505L61 502z"/>
<path style="fill:#464646; stroke:none;" d="M414 504L414 505L420 503L414 504z"/>
<path style="fill:#8c8c8c; stroke:none;" d="M377 504L382 508L382 504L381 504L381 507L377 504z"/>
<path style="fill:#a6a6a6; stroke:none;" d="M34 507L37 506L34 507z"/>
<path style="fill:#828282; stroke:none;" d="M412.667 505.333L413.333 505.667L412.667 505.333z"/>
<path style="fill:#c2c2c2; stroke:none;" d="M498 505L498 512L499 512L500 505L498 505z"/>
<path style="fill:#3c3c3c; stroke:none;" d="M67 506L67 507L80 512L67 506z"/>
<path style="fill:#949494; stroke:none;" d="M35 511L40 508L35 511z"/>
<path style="fill:#bcbcbc; stroke:none;" d="M406 510L406 511L415 509L406 510z"/>
<path style="fill:#757575; stroke:none;" d="M67.6667 509.333L68.3333 509.667L67.6667 509.333M30 510L30 512L32 510L30 510z"/>
<path style="fill:#a6a6a6; stroke:none;" d="M69 510L69 511L73 511L69 510z"/>
<path style="fill:#949494; stroke:none;" d="M401 511L401 512L406 512L401 511z"/>
</svg>
